<svg width="49" height="49" viewBox="0 0 49 49" fill="none" xmlns="http://www.w3.org/2000/svg">
<g clip-path="url(#clip0_1_43)">
<path d="M18.6048 16.8693L12.1895 32.1746H8.00383L4.84722 19.9585C4.65529 19.2071 4.48991 18.9315 3.90595 18.615C2.95448 18.0984 1.3823 17.6145 7.62939e-06 17.3124L0.09393 16.8693H6.83184C7.27215 16.8689 7.69811 17.0258 8.03284 17.3119C8.36757 17.5979 8.58901 17.9942 8.6572 18.4292L10.3253 27.2865L14.4457 16.8693H18.6048ZM35.0065 27.1783C35.0229 23.1376 29.4202 22.915 29.459 21.1101C29.4712 20.5608 29.9939 19.9769 31.1373 19.8278C32.4773 19.7006 33.8268 19.9376 35.0433 20.5139L35.7375 17.2674C34.5532 16.8222 33.2989 16.592 32.0337 16.5875C28.1196 16.5875 25.3652 18.6702 25.3407 21.6491C25.3162 23.8522 27.3069 25.0793 28.8076 25.8144C30.3512 26.5637 30.8698 27.0456 30.8617 27.7153C30.8515 28.7443 29.6325 29.1956 28.4932 29.214C26.5025 29.2446 25.3488 28.677 24.426 28.2482L23.7093 31.6008C24.6342 32.0255 26.3412 32.3971 28.1114 32.4134C32.2705 32.4134 34.9922 30.3594 35.0065 27.1783ZM45.34 32.1746H49.003L45.8076 16.8693H42.4264C42.0651 16.8659 41.7112 16.9712 41.4104 17.1715C41.1097 17.3717 40.8761 17.6577 40.7399 17.9923L34.8003 32.1746H38.9574L39.7843 29.8877H44.8643L45.34 32.1746ZM40.9236 26.7516L43.0063 21.0039L44.2068 26.7516H40.9236ZM24.2626 16.8693L20.9896 32.1746H17.0285L20.3056 16.8693H24.2626Z" fill="white"/>
</g>
<defs>
<clipPath id="clip0_1_43">
<rect width="49.003" height="49.003" fill="white"/>
</clipPath>
</defs>
</svg>
